# xmcd
#
# Track frame offsets: 
#        150
#        19837
#        37560
#        55182
#        69958
#        87002
#        111576
#        127362
#        146081
#
# Disc length: 2231 seconds
#
# Revision: 0
# Processed by: cddbd v1.5.2PL0 Copyright (c) Steve Scherf et al.
# Submitted via: ExactAudioCopy v1.1
#
DISCID=7908b509
DTITLE=Lou Ragland and The Great Lakes Orchestra - Lou Ragland and The Gre
DTITLE=at Lakes Orchestra
DYEAR=1983
DGENRE=Soul
TTITLE0=Trouble
TTITLE1=This Is The Night For Loving Featuring Devanna
TTITLE2=There Will Come A Time
TTITLE3=It's Got To Change
TTITLE4=Didn't I Tell You
TTITLE5=Let's Take A Chance On Love
TTITLE6=Let's Take A Chance On Love
TTITLE7=Let's Take A Chance On Love
TTITLE8=Let's Take A Chance On Love
EXTD=
EXTT0=
EXTT1=
EXTT2=
EXTT3=
EXTT4=
EXTT5=
EXTT6=
EXTT7=
EXTT8=
PLAYORDER=
